<svg width="289" height="69" viewBox="0 0 289 69" fill="none" xmlns="http://www.w3.org/2000/svg">
<g clip-path="url(#clip0_3889_8088)">
<path d="M100.787 33.1942C100.787 38.1744 96.7398 42.2276 91.8799 42.2276H86.8507V51.6285C86.8507 52.0581 86.5177 52.4086 86.0887 52.4086H82.3973C81.9683 52.4086 81.6522 52.0581 81.6522 51.6285V38.0105C81.6522 37.6374 81.9514 37.3208 82.3408 37.3208H91.5074C93.7539 37.3208 95.6278 35.5175 95.6278 33.1376C95.6278 30.9443 93.7539 29.254 91.5074 29.254H82.3408C81.9514 29.254 81.6522 28.9544 81.6522 28.587V25.0935C81.6522 24.7034 81.9683 24.3303 82.3973 24.3303H91.8235C96.7398 24.3303 100.787 28.3439 100.787 33.1942Z" fill="#034961"/>
<path d="M32.0095 1.0741H30.2936V12.9905H32.0095V1.0741Z" fill="#034961"/>
<path d="M1.38283 54.1892L0.530518 52.7025L10.8316 46.7443L11.6895 48.231L1.38283 54.1892Z" fill="#034961"/>
<path d="M60.909 54.1892L50.6079 48.231L51.4602 46.7443L61.7669 52.7025L60.909 54.1892Z" fill="#034961"/>
<path d="M31.1515 54.1271L15.4657 45.0541V26.925L31.1515 17.8521L46.8317 26.925V45.0484L31.1515 54.1214V54.1271ZM17.1816 44.0592L31.1515 52.1429L45.1158 44.0592V27.9143L31.1515 19.8306L17.1816 27.9143V44.0592Z" fill="#034961"/>
<path d="M31.1516 60.074L10.3293 48.0219V23.9573L31.1516 11.9052L51.9739 23.9573V48.0219L31.1516 60.074ZM12.0453 47.0326L31.1516 58.0898L50.258 47.0326V24.9465L31.1516 13.8893L12.0453 24.9465V47.0326Z" fill="#034961"/>
<path d="M31.1516 66.0209L11.1816 54.4606L6.71122 57.0497L5.85327 55.563L11.1816 52.4764L31.1516 64.0367L51.0877 52.4764L56.4442 55.563L55.5919 57.0497L51.0933 54.4606L31.1516 66.0209Z" fill="#034961"/>
<path d="M60.7283 48.135L55.3944 45.0541V21.9787L35.4301 10.4241V4.25671H37.146V9.43482L57.1103 20.9895V44.0592L61.5807 46.6482L60.7283 48.135Z" fill="#034961"/>
<path d="M1.56913 48.135L0.711182 46.6482L5.18721 44.0592V20.9895L25.1515 9.43482V4.25671H26.8674V10.4241L6.90311 21.9787V45.0541L1.56913 48.135Z" fill="#034961"/>
<path d="M55.4057 21.4756L55.4 16.0261L31.1516 1.97854L6.89752 15.9753V21.4756H5.18726V14.986L31.1516 0L57.1103 15.0312L57.1216 21.4756H55.4057Z" fill="#034961"/>
<path d="M25.9813 68.9774L0.0507998 53.9632L0 23.9629L5.6162 20.7181L6.46851 22.2049L1.7159 24.9522L1.76106 52.9739L25.9869 66.9933L30.7282 64.2742L31.5805 65.7666L25.9813 68.9774Z" fill="#034961"/>
<path d="M36.288 69L30.7113 65.7722L31.5693 64.2854L36.288 67.0158L60.559 52.9739V24.9409L55.8233 22.2105L56.6813 20.7238L62.2749 23.9459V53.9631L36.288 69Z" fill="#034961"/>
<path d="M137.238 24.3359H133.118C132.779 24.3359 132.587 24.5281 132.469 24.6977L126.057 33.9177L119.645 24.6977C119.526 24.5281 119.329 24.3359 119.018 24.3359H114.92C114.294 24.3359 113.955 24.9634 114.294 25.4948L123.427 38.8923V51.6397C123.427 52.0524 123.743 52.4142 124.172 52.4142H127.857C128.241 52.4142 128.631 52.0524 128.631 51.6397V38.8471L137.859 25.5004C138.198 24.9691 137.859 24.3416 137.233 24.3416L137.238 24.3359Z" fill="#034961"/>
<path d="M174.74 47.8184L172.256 45.2576C172.014 45.0145 171.579 44.9693 171.246 45.2576C169.581 46.6313 167.532 47.5527 165.122 47.5527C159.991 47.5527 156.159 43.3017 156.159 38.2819C156.159 33.262 159.969 28.9432 165.077 28.9432C167.318 28.9432 169.587 29.8137 171.246 31.3061C171.585 31.617 171.969 31.617 172.256 31.3061L174.689 28.7736C175.028 28.457 175.028 27.9765 174.667 27.6656C171.94 25.2009 169.005 23.9233 164.953 23.9233C156.949 23.9233 150.514 30.3903 150.514 38.4062C150.514 46.4221 156.949 52.793 164.953 52.793C168.52 52.793 171.969 51.5606 174.689 48.9094C174.977 48.6437 175.05 48.1123 174.734 47.824L174.74 47.8184Z" fill="#2E8BCB"/>
<path d="M213.325 24.336H209.515C209.081 24.336 208.77 24.6978 208.77 25.0822V41.5436C208.77 44.8958 206.411 47.5753 202.911 47.5753C199.412 47.5753 197.103 44.8958 197.103 41.4927V25.0765C197.103 24.6921 196.793 24.3303 196.33 24.3303H192.548C192.136 24.3303 191.775 24.6921 191.775 25.0765V41.7584C191.775 47.8636 196.618 52.7873 202.911 52.7873C209.205 52.7873 214.093 47.8636 214.093 41.7584V25.0765C214.093 24.6921 213.732 24.3303 213.32 24.3303L213.325 24.336Z" fill="#2E8BCB"/>
<path d="M252.859 44.6584C252.859 49.1525 248.998 52.4086 244.099 52.4086H234.413C233.984 52.4086 233.673 52.0581 233.673 51.6285V48.3554C233.673 47.9823 233.973 47.6658 234.339 47.6658H243.67C245.673 47.6658 247.288 46.1056 247.288 44.0027C247.288 41.8998 245.284 40.5261 243.19 40.5261H234.339C233.967 40.5261 233.673 40.2095 233.673 39.8364V36.7895C233.673 36.4164 233.973 36.0998 234.339 36.0998H243.116C245.16 36.0998 246.565 34.5 246.565 32.5158C246.565 30.5317 245.154 29.0788 243.116 29.0788H234.339C233.967 29.0788 233.673 28.7792 233.673 28.4118V25.0879C233.673 24.6978 233.989 24.3247 234.413 24.3247H243.596C248.366 24.3247 252.057 27.5412 252.057 31.7414C252.057 34.8279 249.517 37.2417 247.643 38.1123C249.76 38.7793 252.859 40.9557 252.859 44.6527V44.6584Z" fill="#2E8BCB"/>
<path d="M288.255 29.141C288.69 29.141 289 28.7792 289 28.3665V25.0821C289 24.6977 288.684 24.3359 288.255 24.3359H271.937C271.502 24.3359 271.192 24.6977 271.192 25.0821V51.6341C271.192 52.0467 271.508 52.4085 271.937 52.4085H288.255C288.69 52.4085 289 52.0467 289 51.6341V48.3497C289 47.937 288.684 47.5753 288.255 47.5753H276.396V40.5769H286.279C286.691 40.5769 287.053 40.2377 287.053 39.8024V36.4728C287.053 36.0602 286.691 35.7266 286.279 35.7266H276.396V29.1353H288.255V29.141Z" fill="#2E8BCB"/>
</g>
<defs>
<clipPath id="clip0_3889_8088">
<rect width="289" height="69" fill="white"/>
</clipPath>
</defs>
</svg>
